<?xml version="1.0" standalone="no"?>
<!DOCTYPE svg PUBLIC "-//W3C//DTD SVG 20010904//EN"
 "http://www.w3.org/TR/2001/REC-SVG-20010904/DTD/svg10.dtd">
<svg version="1.0" xmlns="http://www.w3.org/2000/svg"
 width="500.000000pt" height="250.000000pt" viewBox="0 0 500.000000 250.000000"
 preserveAspectRatio="xMidYMid meet">

<g transform="translate(0.000000,250.000000) scale(0.100000,-0.100000)"
fill="#000000" stroke="none">
<path d="M854 1846 c-106 -26 -198 -101 -243 -196 -22 -47 -26 -69 -26 -145 0
-85 3 -95 41 -175 42 -88 168 -281 249 -383 35 -44 52 -57 68 -55 40 6 226
266 305 428 46 93 47 97 47 190 0 83 -4 101 -27 145 -35 67 -111 138 -178 169
-68 31 -166 40 -236 22z m177 -221 c49 -32 73 -84 67 -147 -9 -85 -72 -142
-157 -142 -187 1 -221 258 -42 315 37 12 91 1 132 -26z"/>
<path d="M881 1544 c-27 -35 -26 -66 2 -100 47 -54 137 -20 137 51 0 70 -96
103 -139 49z"/>
<path d="M2038 1739 c-11 -6 -18 -22 -18 -39 0 -24 5 -31 27 -36 49 -13 82 35
48 70 -19 18 -33 20 -57 5z"/>
<path d="M1642 1518 l3 -203 110 1 c61 1 122 6 137 12 62 25 84 128 38 177
-13 14 -29 25 -37 25 -7 0 -13 5 -13 10 0 6 4 10 10 10 5 0 17 14 26 32 13 26
14 38 5 69 -16 54 -55 69 -180 69 l-101 0 2 -202z m192 126 c19 -18 21 -55 4
-72 -7 -7 -36 -12 -65 -12 l-53 0 0 50 0 50 49 0 c32 0 55 -6 65 -16z m21
-158 c21 -15 25 -67 5 -90 -9 -12 -31 -16 -76 -16 l-64 0 0 60 0 60 58 0 c33
0 66 -6 77 -14z"/>
<path d="M2558 1596 c-60 -95 -78 -132 -78 -160 l0 -36 89 0 90 0 3 -42 c3
-42 4 -43 38 -43 34 0 35 1 38 43 3 39 5 42 33 42 27 0 29 3 29 35 0 32 -2 35
-30 35 l-30 0 0 125 0 125 -52 0 -53 0 -77 -124z m99 -123 c-3 -2 -26 -3 -51
-1 l-47 3 48 75 48 75 3 -74 c2 -40 1 -75 -1 -78z"/>
<path d="M2377 1641 c-4 -16 -14 -19 -64 -18 -72 0 -109 -20 -122 -70 -11 -37
4 -93 29 -108 8 -5 5 -12 -9 -22 -23 -15 -28 -62 -10 -80 7 -7 2 -15 -15 -27
-20 -12 -26 -25 -26 -51 0 -52 42 -75 138 -75 78 0 124 16 142 49 14 27 13 84
-3 105 -14 20 -73 35 -133 36 -45 0 -55 5 -47 26 3 9 20 14 45 14 45 0 93 22
108 49 14 27 13 84 -2 99 -9 9 -7 17 10 35 26 28 28 43 6 51 -27 10 -42 7 -47
-13z m-39 -83 c21 -21 15 -67 -12 -79 -34 -16 -66 3 -66 39 0 33 16 52 45 52
12 0 26 -5 33 -12z m33 -264 c11 -14 10 -19 -10 -35 -39 -32 -131 -19 -131 19
0 28 8 32 70 32 41 0 61 -5 71 -16z"/>
<path d="M2030 1475 c0 -80 -1 -148 -2 -152 -2 -5 13 -8 32 -8 l35 0 3 153 3
152 -36 0 -35 0 0 -145z"/>
<path d="M502 1193 c-5 -10 -46 -130 -92 -266 -66 -200 -80 -250 -70 -262 19
-22 1181 -22 1200 0 10 12 -5 64 -76 277 l-89 263 -46 3 -46 3 -41 -68 c-59
-101 -204 -292 -238 -314 -49 -32 -98 -25 -147 21 -45 41 -154 188 -221 298
-38 61 -40 62 -82 62 -31 0 -46 -5 -52 -17z"/>
<path d="M1724 1171 c-77 -35 -109 -103 -102 -212 9 -120 73 -182 188 -182 61
0 109 20 132 55 29 46 29 57 -2 73 -36 18 -40 19 -40 2 0 -19 -40 -54 -71 -62
-15 -4 -41 0 -63 9 -50 21 -70 70 -63 151 5 51 10 64 36 87 44 40 103 39 140
-1 26 -28 28 -29 54 -13 34 21 34 32 0 64 -54 51 -135 62 -209 29z"/>
<path d="M2079 1067 c-92 -61 -92 -217 1 -271 42 -25 114 -26 158 -2 21 11 41
33 53 59 53 117 -14 237 -131 237 -32 0 -58 -7 -81 -23z m134 -69 c20 -23 23
-85 5 -123 -21 -46 -101 -46 -118 1 -13 33 -13 90 1 115 22 42 79 45 112 7z"/>
<path d="M2385 1082 c-3 -3 -5 -72 -5 -154 l0 -148 40 0 40 0 0 99 c0 55 3
107 6 116 9 24 51 37 75 25 17 -10 19 -22 19 -125 l0 -115 40 0 40 0 0 100 c0
94 2 103 25 125 28 29 47 31 69 9 13 -12 16 -39 16 -125 l0 -109 35 0 35 0 0
130 c0 126 -1 132 -25 155 -34 34 -93 34 -134 0 -24 -21 -31 -23 -38 -12 -23
39 -96 48 -136 17 -31 -25 -37 -25 -37 -2 0 14 -8 18 -30 18 -17 0 -32 -2 -35
-4z"/>
<path d="M2910 935 l0 -155 35 0 35 0 1 88 c1 48 4 98 8 112 9 33 53 55 81 40
18 -10 20 -21 20 -125 l0 -115 40 0 40 0 0 103 c0 67 4 109 13 119 18 24 51
30 73 14 16 -12 19 -29 22 -125 l4 -111 35 0 35 0 -4 136 c-3 129 -4 137 -27
155 -33 27 -93 25 -128 -5 l-28 -24 -28 24 c-16 13 -41 24 -57 24 -33 0 -80
-19 -80 -32 0 -16 -18 -7 -23 12 -4 15 -14 20 -36 20 l-31 0 0 -155z"/>
<path d="M3492 1070 c-66 -41 -92 -134 -58 -215 36 -85 178 -107 242 -38 l24
26 -27 18 c-27 18 -28 18 -48 -1 -42 -40 -125 -13 -125 41 0 19 5 20 98 18
l97 -2 3 36 c5 54 -21 105 -62 122 -49 21 -105 19 -144 -5z m125 -69 c6 -14
10 -29 7 -33 -3 -4 -32 -8 -65 -8 -66 0 -76 13 -38 51 28 28 79 23 96 -10z"/>
<path d="M3770 935 l0 -155 35 0 35 0 0 73 c0 125 27 177 85 163 19 -5 23 -1
29 25 3 17 3 35 0 40 -13 21 -76 3 -101 -30 -11 -14 -12 -12 -13 12 0 24 -4
27 -35 27 l-35 0 0 -155z"/>
<path d="M4059 1067 c-67 -44 -88 -140 -49 -217 48 -93 189 -101 247 -14 12
19 11 23 -13 39 -25 16 -27 16 -53 -9 -26 -25 -65 -33 -87 -18 -37 24 -46 115
-16 153 25 30 78 31 103 0 l17 -21 28 24 c25 21 27 26 14 41 -41 49 -134 60
-191 22z"/>
<path d="M4380 1073 c-95 -49 -102 -223 -11 -275 59 -34 143 -28 187 13 30 28
30 33 -1 53 -23 15 -26 15 -45 -4 -30 -30 -86 -24 -113 12 -11 14 -16 31 -13
37 5 7 44 11 101 11 81 0 94 2 97 18 7 34 -10 95 -35 120 -34 34 -116 41 -167
15z m114 -59 c9 -8 16 -24 16 -35 0 -17 -7 -19 -59 -19 -33 0 -62 4 -65 9 -3
5 4 20 15 35 24 30 69 35 93 10z"/>
</g>
</svg>
